<svg width="32" height="32" viewBox="0 0 32 32" fill="none" xmlns="http://www.w3.org/2000/svg">
<path d="M16 18.25C15.7239 18.25 15.5 18.4739 15.5 18.75C15.5 19.0261 15.7239 19.25 16 19.25C16.5514 19.25 17 19.6986 17 20.25C17 20.8014 16.5514 21.25 16 21.25C15.4486 21.25 15 20.8014 15 20.25C15 19.9739 14.7761 19.75 14.5 19.75C14.2239 19.75 14 19.9739 14 20.25C14 21.3528 14.8972 22.25 16 22.25C17.1028 22.25 18 21.3528 18 20.25C18 19.1472 17.1028 18.25 16 18.25Z" fill="white"/>
<path d="M14 15.25C15.3785 15.25 16.5 13.9042 16.5 12.25C16.5 11.1472 17.1729 10.25 18 10.25C18.8271 10.25 19.5 11.1472 19.5 12.25C19.5 13.3528 18.8271 14.25 18 14.25C17.7239 14.25 17.5 14.4739 17.5 14.75C17.5 15.0261 17.7239 15.25 18 15.25C19.2365 15.25 20.2656 14.1669 20.4646 12.75H21C21.2761 12.75 21.5 12.5261 21.5 12.25C21.5 11.9739 21.2761 11.75 21 11.75H20.4646C20.2656 10.3331 19.2365 9.25 18 9.25C16.6215 9.25 15.5 10.5958 15.5 12.25C15.5 13.3528 14.8271 14.25 14 14.25C13.1729 14.25 12.5 13.3528 12.5 12.25C12.5 11.1472 13.1729 10.25 14 10.25C14.2761 10.25 14.5 10.0261 14.5 9.75C14.5 9.47387 14.2761 9.25 14 9.25C12.7635 9.25 11.7344 10.3331 11.5354 11.75H11C10.7239 11.75 10.5 11.9739 10.5 12.25C10.5 12.5261 10.7239 12.75 11 12.75H11.5354C11.7344 14.1669 12.7635 15.25 14 15.25Z" fill="white"/>
<path d="M29.5 3.75H2.5C1.1215 3.75 0 4.8715 0 6.25V9.25C0 10.6285 1.1215 11.75 2.5 11.75H5.5C5.77612 11.75 6 11.5261 6 11.25C6 10.9739 5.77612 10.75 5.5 10.75H2.5C1.67287 10.75 1 10.0771 1 9.25V6.25C1 5.42287 1.67287 4.75 2.5 4.75H29.5C30.3271 4.75 31 5.42287 31 6.25V9.25C31 10.0771 30.3271 10.75 29.5 10.75H26.5C26.2239 10.75 26 10.9739 26 11.25C26 11.5261 26.2239 11.75 26.5 11.75H29.5C30.8785 11.75 32 10.6285 32 9.25V6.25C32 4.8715 30.8785 3.75 29.5 3.75Z" fill="white"/>
<path d="M27.5 8.25C27.7761 8.25 28 8.02613 28 7.75C28 7.47387 27.7761 7.25 27.5 7.25H4.5C4.22387 7.25 4 7.47387 4 7.75C4 8.02613 4.22387 8.25 4.5 8.25H7V27.25C7 27.8014 7.44863 28.25 8 28.25H24C24.5514 28.25 25 27.8014 25 27.25V8.25H27.5ZM10 8.25H22V22.2856C20.4694 22.5055 19.2555 23.7194 19.0356 25.25H12.9644C12.7445 23.7194 11.5306 22.5055 10 22.2856V8.25ZM24 27.25H8V8.25H9V22.75C9 23.0261 9.22388 23.25 9.5 23.25C10.8785 23.25 12 24.3715 12 25.75C12 26.0261 12.2239 26.25 12.5 26.25H19.5C19.7761 26.25 20 26.0261 20 25.75C20 24.3715 21.1215 23.25 22.5 23.25C22.7761 23.25 23 23.0261 23 22.75V8.25H24V27.25Z" fill="white"/>
</svg>
