<svg width="32" height="32" viewBox="0 0 32 32" fill="none" xmlns="http://www.w3.org/2000/svg">
<g clip-path="url(#clip0_17_3174)">
<path d="M31.9941 19.211C31.8509 15.658 28.9593 12.7154 25.4111 12.5118C22.6384 12.3529 20.0311 13.8492 18.7689 16.3242C18.5711 16.712 18.253 16.9948 17.8729 17.1206C17.8026 17.1438 17.7316 17.1668 17.6599 17.1895C17.8036 16.1498 18.0445 15.1217 18.3786 14.1237C18.5054 13.7447 18.7843 13.4299 19.1639 13.2372C21.6465 11.9772 23.1476 9.36763 22.9882 6.58895C22.7847 3.04078 19.8421 0.149227 16.2891 0.00591516C14.3628 -0.0718345 12.5385 0.619038 11.1516 1.95103C9.76416 3.28371 9.00004 5.07677 9.00004 7.00007C9.00004 9.65044 10.4732 12.042 12.8447 13.2416C13.2183 13.4305 13.4934 13.7414 13.6193 14.117C13.9545 15.1171 14.1961 16.1476 14.3401 17.1895C14.2683 17.1668 14.197 17.1437 14.1265 17.1204C13.7468 16.9948 13.429 16.7123 13.2315 16.3249C11.9695 13.8495 9.36203 12.3531 6.58898 12.5119C3.04075 12.7154 0.149132 15.658 0.00588229 19.211C-0.0717424 21.1371 0.619067 22.9617 1.951 24.3484C3.28362 25.7359 5.07674 26.5 7.00004 26.5C9.63966 26.5 12.0269 25.0354 13.2301 22.6778C13.4288 22.2885 13.7485 22.0046 14.1304 21.8783C14.2 21.8553 14.2705 21.8325 14.3415 21.81C13.8641 25.291 12.2918 28.5859 9.86759 31.1569C9.73072 31.3021 9.69322 31.5149 9.77234 31.698C9.85147 31.8812 10.0318 31.9999 10.2314 31.9999H12.0001H20.0001H21.7687C21.9682 31.9999 22.1487 31.8813 22.2277 31.698C22.3068 31.5148 22.2694 31.3021 22.1325 31.1569C19.7082 28.5859 18.1359 25.2911 17.6586 21.81C17.7296 21.8325 17.8001 21.8553 17.8697 21.8783C18.2516 22.0046 18.5713 22.2885 18.77 22.6778C19.9732 25.0354 22.3604 26.5 25 26.5C26.9233 26.5 28.7164 25.7359 30.0491 24.3484C31.3809 22.9617 32.0718 21.1371 31.9941 19.211ZM29.3278 23.6557C28.1855 24.845 26.6485 25.5 25 25.5C22.7381 25.5 20.6922 24.2444 19.6606 22.2232C19.3416 21.598 18.817 21.1384 18.1836 20.9289C17.8693 20.825 17.541 20.7262 17.2078 20.6353C17.0496 20.5921 16.8804 20.6293 16.7548 20.7346C16.6292 20.84 16.5632 21.0001 16.5782 21.1634C16.7638 23.1842 17.2853 25.1418 18.1279 26.9817C18.7909 28.4292 19.6396 29.7767 20.6578 31H19.9999H12H11.3421C12.3603 29.7767 13.209 28.4292 13.872 26.9817C14.7146 25.1418 15.2361 23.1843 15.4217 21.1634C15.4367 21.0001 15.3708 20.84 15.2451 20.7346C15.1195 20.6292 14.9503 20.5922 14.7921 20.6353C14.4589 20.7262 14.1306 20.825 13.8163 20.9289C13.1829 21.1384 12.6583 21.598 12.3393 22.2232C11.3078 24.2444 9.26185 25.5 6.99992 25.5C5.35142 25.5 3.81443 24.8451 2.67212 23.6557C1.53044 22.4671 0.938379 20.903 1.005 19.2513C1.12769 16.2064 3.60556 13.6846 6.64604 13.5102C9.02328 13.374 11.2585 14.6569 12.3404 16.779C12.6582 17.4025 13.1809 17.8608 13.8121 18.0697C14.1278 18.1742 14.4574 18.2734 14.7918 18.3647C14.9499 18.4078 15.1194 18.3707 15.245 18.2651C15.3706 18.1596 15.4364 17.9991 15.4212 17.8358C15.2933 16.4661 15.006 15.108 14.5673 13.7991C14.3573 13.1726 13.9058 12.6576 13.2959 12.3492C11.2628 11.3208 9.99991 9.27113 9.99991 7.00007C9.99991 5.35158 10.6549 3.81459 11.8442 2.67222C13.0329 1.53053 14.5974 0.938412 16.2488 1.0051C19.2936 1.12791 21.8154 3.60578 21.9897 6.6462C22.1264 9.02819 20.8394 11.2653 18.7111 12.3455C18.0958 12.6578 17.6409 13.1766 17.4301 13.8063C16.9927 15.1128 16.7062 16.4685 16.5785 17.8358C16.5633 17.9992 16.6291 18.1597 16.7547 18.2652C16.8803 18.3707 17.0498 18.4078 17.2079 18.3647C17.542 18.2735 17.8714 18.1744 18.1869 18.07C18.8184 17.861 19.3415 17.4023 19.6596 16.7785C20.7416 14.6568 22.9763 13.3741 25.3537 13.5102C28.3941 13.6847 30.872 16.2065 30.9947 19.2513C31.0615 20.9029 30.4694 22.4671 29.3278 23.6557Z" fill="white"/>
<path d="M19.9931 6.76067C20.0084 7.02661 20.2288 7.23204 20.4918 7.23204C20.5014 7.23204 20.5112 7.23173 20.5209 7.23117C20.7966 7.21535 21.0072 6.97904 20.9914 6.70336C20.8461 4.17062 18.7453 2.1065 16.2086 2.00419C16.1396 2.00138 16.0694 2 16 2C15.7239 2 15.5 2.22387 15.5 2.5C15.5 2.77612 15.7239 3 16 3C16.0558 3 16.1119 3.00112 16.1683 3.00337C18.1969 3.08518 19.8769 4.73561 19.9931 6.76067Z" fill="white"/>
<path d="M25.2163 14.5042C25.1473 14.5014 25.0771 14.5 25.0077 14.5C24.7316 14.5 24.5077 14.7239 24.5077 15C24.5077 15.2761 24.7316 15.5 25.0077 15.5C25.0635 15.5 25.1197 15.5011 25.1759 15.5034C27.2045 15.5852 28.8846 17.2356 29.0008 19.2607C29.0161 19.5266 29.2365 19.732 29.4995 19.732C29.5091 19.732 29.5189 19.7317 29.5286 19.7312C29.8043 19.7154 30.0149 19.479 29.9991 19.2034C29.8539 16.6706 27.7529 14.6065 25.2163 14.5042Z" fill="white"/>
<path d="M6.99992 14.5C6.7238 14.5 6.49992 14.7238 6.49992 14.9999C6.49992 15.2761 6.72374 15.4999 6.99992 15.5C8.50729 15.5001 9.87097 16.3382 10.5588 17.6874C10.6471 17.8607 10.8226 17.9604 11.0046 17.9604C11.081 17.9604 11.1585 17.9429 11.2313 17.9058C11.4773 17.7804 11.575 17.4792 11.4496 17.2332C10.5902 15.5474 8.88516 14.5001 6.99992 14.5Z" fill="white"/>
<path d="M16.3137 26.5386C16.0589 26.645 15.9386 26.9379 16.0451 27.1926C16.4133 28.0741 16.8483 28.9366 17.3378 29.7563C17.4314 29.9131 17.5973 30 17.7675 30C17.8548 30 17.9431 29.9772 18.0234 29.9292C18.2604 29.7876 18.3379 29.4806 18.1963 29.2436C17.7311 28.4645 17.3178 27.6448 16.9678 26.8071C16.8613 26.5523 16.5685 26.432 16.3137 26.5386Z" fill="white"/>
</g>
<defs>
<clipPath id="clip0_17_3174">
<rect width="32" height="32" fill="white"/>
</clipPath>
</defs>
</svg>
