<svg width="32" height="32" viewBox="0 0 32 32" fill="none" xmlns="http://www.w3.org/2000/svg">
<g clip-path="url(#clip0_17_3185)">
<path d="M27.3137 4.68625C24.2917 1.66425 20.2738 0 16 0C11.7262 0 7.70831 1.66425 4.68625 4.68625C1.66419 7.70825 0 11.7262 0 16C0 20.2738 1.66425 24.2917 4.68625 27.3137C7.70825 30.3358 11.7262 32 16 32C20.2738 32 24.2917 30.3357 27.3137 27.3137C30.3358 24.2917 32 20.2738 32 16C32 11.7262 30.3357 7.70831 27.3137 4.68625ZM29.2393 23.0664L26.6312 21.5606C27.4317 20.0362 27.9137 18.3198 27.9888 16.5H30.9908C30.9152 18.8263 30.3129 21.0612 29.2393 23.0664ZM15.5 27.9888V30.9909C13.1737 30.9152 10.9388 30.3129 8.93363 29.2394L10.4394 26.6313C11.9638 27.4318 13.6801 27.9138 15.5 27.9888ZM16.5 27.9888C18.3199 27.9138 20.0362 27.4318 21.5606 26.6313L23.0664 29.2394C21.0612 30.3129 18.8263 30.9152 16.5 30.9909V27.9888ZM16 27C9.93456 27 5 22.0654 5 16C5 9.93456 9.93456 5 16 5C22.0654 5 27 9.93456 27 16C27 22.0654 22.0654 27 16 27ZM1.00912 16.5H4.01119C4.08619 18.3199 4.56825 20.0362 5.36875 21.5606L2.76062 23.0664C1.68712 21.0612 1.08481 18.8263 1.00912 16.5ZM2.76069 8.93363L5.36881 10.4394C4.56825 11.9638 4.08619 13.6801 4.01119 15.5H1.00912C1.08481 13.1737 1.68713 10.9388 2.76069 8.93363ZM16.5 4.01119V1.00912C18.8263 1.08481 21.0612 1.68706 23.0664 2.76062L21.5606 5.36875C20.0362 4.56825 18.3199 4.08619 16.5 4.01119ZM15.5 4.01119C13.6801 4.08619 11.9638 4.56825 10.4394 5.36875L8.93363 2.76062C10.9388 1.68712 13.1737 1.08481 15.5 1.00912V4.01119ZM27.9888 15.5C27.9138 13.6801 27.4318 11.9638 26.6313 10.4394L29.2394 8.93363C30.3129 10.9388 30.9152 13.1737 30.9909 15.5H27.9888ZM28.7372 8.06881L26.1301 9.574C25.1821 8.08481 23.9151 6.81787 22.426 5.86987L23.9312 3.26275C24.8897 3.86219 25.7874 4.57419 26.6066 5.39337C27.4258 6.21256 28.1378 7.11025 28.7372 8.06881ZM5.39337 5.39337C6.21256 4.57419 7.11025 3.86212 8.06875 3.26275L9.57394 5.86987C8.08475 6.81787 6.81781 8.08488 5.86981 9.574L3.26269 8.06881C3.86219 7.11025 4.57419 6.21256 5.39337 5.39337ZM3.26275 23.9312L5.86987 22.426C6.81787 23.9152 8.08488 25.1821 9.574 26.1301L8.06881 28.7372C7.11025 28.1378 6.21263 27.4258 5.39344 26.6066C4.57419 25.7874 3.86219 24.8897 3.26275 23.9312ZM26.6066 26.6066C25.7874 27.4258 24.8897 28.1379 23.9312 28.7372L22.4261 26.1301C23.9152 25.1821 25.1822 23.9151 26.1302 22.426L28.7373 23.9312C28.1378 24.8897 27.4258 25.7874 26.6066 26.6066Z" fill="white"/>
<path d="M22.6313 9.91497C22.7299 10.0224 22.8646 10.0768 22.9997 10.0768C23.1206 10.0768 23.2417 10.0333 23.3377 9.94515C23.5412 9.7584 23.5547 9.44209 23.3679 9.23872C23.1751 9.02865 22.9708 8.8244 22.7608 8.63165C22.5574 8.44497 22.2411 8.4584 22.0544 8.6619C21.8676 8.86534 21.8812 9.18159 22.0846 9.36834C22.2737 9.54184 22.4576 9.72578 22.6313 9.91497Z" fill="white"/>
<path d="M7 16C7 11.0374 11.0374 7 16 7C17.4874 7 18.9611 7.37031 20.2617 8.07088C20.5048 8.20175 20.8081 8.11094 20.939 7.86775C21.0699 7.62456 20.979 7.32137 20.7359 7.19044C19.2901 6.41162 17.6524 6 16 6C10.486 6 6 10.486 6 16C6 18.2965 6.79788 20.5396 8.24669 22.316C8.34556 22.4372 8.48937 22.5 8.6345 22.5C8.74556 22.5 8.85738 22.4631 8.95019 22.3874C9.16419 22.2129 9.19619 21.8979 9.02169 21.6839C7.71794 20.0855 7 18.0669 7 16Z" fill="white"/>
<path d="M24.8086 11.2622C24.6776 11.019 24.3744 10.9282 24.1312 11.0592C23.8881 11.1902 23.7973 11.4935 23.9283 11.7366C24.6294 13.0375 25 14.5118 25 15.9999C25 20.9625 20.9626 24.9999 16 24.9999C13.9331 24.9999 11.9144 24.2819 10.3159 22.9781C10.1019 22.8036 9.78695 22.8356 9.61238 23.0496C9.43788 23.2636 9.46982 23.5785 9.68388 23.7531C11.4603 25.202 13.7034 25.9999 16 25.9999C21.514 25.9999 26 21.5139 26 15.9999C26 14.3467 25.588 12.7084 24.8086 11.2622Z" fill="white"/>
<path d="M16 11.7511C15.2409 10.9586 14.1862 10.5001 13.0728 10.5001C10.8371 10.5001 9.01819 12.3189 9.01819 14.5546C9.01819 19.0809 15.4791 22.7803 15.7542 22.9355C15.8304 22.9786 15.9153 23.0001 16 23.0001C16.0848 23.0001 16.1695 22.9786 16.2458 22.9355C16.3139 22.8971 17.9324 21.9771 19.5744 20.5072C21.8354 18.4833 22.9819 16.4805 22.9819 14.5546C22.9819 12.3189 21.163 10.5 18.9273 10.5C17.8138 10.5001 16.7591 10.9586 16 11.7511ZM21.9818 14.5546C21.9818 18.0435 17.1548 21.2106 15.9998 21.9181C14.8444 21.2111 10.0182 18.0483 10.0182 14.5546C10.0182 12.8704 11.3884 11.5001 13.0728 11.5001C14.0764 11.5001 15.0168 11.995 15.5884 12.824C15.6817 12.9594 15.8356 13.0402 16 13.0402C16.1644 13.0402 16.3183 12.9594 16.4116 12.824C16.9833 11.995 17.9237 11.5001 18.9273 11.5001C20.6116 11.5001 21.9818 12.8703 21.9818 14.5546Z" fill="white"/>
</g>
<defs>
<clipPath id="clip0_17_3185">
<rect width="32" height="32" fill="white"/>
</clipPath>
</defs>
</svg>
