<svg width="32" height="32" viewBox="0 0 32 32" fill="none" xmlns="http://www.w3.org/2000/svg">
<g clip-path="url(#clip0_17_3104)">
<path d="M27.3137 4.68625C24.2917 1.66425 20.2738 0 16 0C11.7262 0 7.70831 1.66425 4.68625 4.68625C1.66419 7.70825 0 11.7262 0 16C0 20.2738 1.66425 24.2917 4.68625 27.3137C7.70825 30.3358 11.7262 32 16 32C20.2738 32 24.2917 30.3357 27.3137 27.3137C30.3358 24.2917 32 20.2738 32 16C32 11.7262 30.3357 7.70831 27.3137 4.68625ZM26.6066 26.6066C23.7735 29.4398 20.0066 31 16 31C11.9934 31 8.2265 29.4398 5.39337 26.6066C2.56025 23.7735 1 20.0066 1 16C1 11.9934 2.56025 8.2265 5.39337 5.39337C8.2265 2.56025 11.9934 1 16 1C20.0066 1 23.7735 2.56025 26.6066 5.39337C29.4398 8.2265 31 11.9934 31 16C31 20.0066 29.4398 23.7735 26.6066 26.6066Z" fill="white"/>
<path d="M19.8517 3.57982C20.1754 3.68007 20.4992 3.79469 20.8143 3.92032C20.8751 3.94457 20.9377 3.956 20.9994 3.956C21.198 3.956 21.3859 3.83688 21.4639 3.64113C21.5662 3.38463 21.4412 3.09382 21.1847 2.99144C20.8453 2.856 20.4963 2.73257 20.1474 2.62457C19.8838 2.54288 19.6036 2.69044 19.5219 2.95425C19.4403 3.21807 19.5879 3.49813 19.8517 3.57982Z" fill="white"/>
<path d="M11.0779 28.0359C8.54881 27.0005 6.36369 25.1451 4.92525 22.8115C4.78037 22.5764 4.47231 22.5032 4.23725 22.6483C4.00219 22.7931 3.92906 23.1012 4.074 23.3363C5.62269 25.8487 7.97556 27.8464 10.6991 28.9614C10.7611 28.9868 10.8252 28.9988 10.8884 28.9988C11.0853 28.9988 11.2721 28.8816 11.3513 28.6881C11.4559 28.4325 11.3335 28.1405 11.0779 28.0359Z" fill="white"/>
<path d="M27.4066 7.881C26.2932 6.3195 24.8986 5.02319 23.2615 4.02813C23.0255 3.88469 22.7179 3.95975 22.5745 4.19569C22.4311 4.43169 22.5061 4.73925 22.7421 4.88269C24.2627 5.80688 25.5581 7.011 26.5924 8.46156C26.6899 8.59838 26.8437 8.67131 26.9999 8.67131C27.1004 8.67131 27.2017 8.64113 27.2898 8.57838C27.5146 8.41806 27.5669 8.10588 27.4066 7.881Z" fill="white"/>
<path d="M16 8.5C11.8645 8.5 8.5 11.8645 8.5 16C8.5 20.1355 11.8645 23.5 16 23.5C20.1355 23.5 23.5 20.1355 23.5 16C23.5 11.8645 20.1355 8.5 16 8.5ZM16 22.5C12.4159 22.5 9.5 19.5841 9.5 16C9.5 12.4159 12.4159 9.5 16 9.5C19.5841 9.5 22.5 12.4159 22.5 16C22.5 19.5841 19.5841 22.5 16 22.5Z" fill="white"/>
<path d="M17.482 15.4329C17.7211 15.5711 18.0269 15.4895 18.1652 15.2505C18.3842 14.8719 18.5 14.4394 18.5 14C18.5 12.6215 17.3785 11.5 16 11.5C14.6215 11.5 13.5 12.6215 13.5 14C13.5 15.3785 14.6215 16.5 16 16.5C16.8271 16.5 17.5 17.1729 17.5 18C17.5 18.8271 16.8271 19.5 16 19.5C15.1729 19.5 14.5 18.8271 14.5 18C14.5 17.8726 14.5159 17.7463 14.5473 17.6245C14.5809 17.4937 14.6324 17.3679 14.7017 17.248C14.8384 17.0086 14.7557 16.7039 14.5167 16.5666C14.2778 16.4292 13.9725 16.5113 13.8346 16.7499C13.7212 16.946 13.6351 17.1564 13.5788 17.3752C13.5265 17.5783 13.4999 17.7886 13.4999 18C13.4999 19.3785 14.6214 20.5 15.9999 20.5C17.3784 20.5 18.4999 19.3785 18.4999 18C18.4999 16.6215 17.3784 15.5 15.9999 15.5C15.1729 15.5 14.4999 14.8271 14.4999 14C14.4999 13.1729 15.1729 12.5 15.9999 12.5C16.827 12.5 17.4999 13.1729 17.4999 14C17.4999 14.2639 17.4306 14.5231 17.2995 14.7497C17.1613 14.9887 17.243 15.2946 17.482 15.4329Z" fill="white"/>
</g>
<defs>
<clipPath id="clip0_17_3104">
<rect width="32" height="32" fill="white"/>
</clipPath>
</defs>
</svg>
