<svg width="32" height="32" viewBox="0 0 32 32" fill="none" xmlns="http://www.w3.org/2000/svg">
<g clip-path="url(#clip0_17_3196)">
<path d="M31.6713 26.7931L17.4739 3.68115C17.1061 3.08254 16.569 2.73926 16 2.73926C15.4311 2.73926 14.8939 3.0826 14.5262 3.68115L0.328846 26.7931C-0.0433726 27.399 -0.102565 28.0224 0.16652 28.5035C0.435605 28.9847 0.997777 29.2605 1.7089 29.2605H30.2912C31.0023 29.2605 31.5645 28.9847 31.8336 28.5036C32.1026 28.0225 32.0434 27.3991 31.6713 26.7931ZM30.9607 28.0154C30.8749 28.1688 30.6246 28.2605 30.2912 28.2605H1.7089C1.3755 28.2605 1.12523 28.1688 1.03934 28.0154C0.953524 27.8619 1.00647 27.6007 1.18098 27.3166L15.3784 4.20463C15.56 3.90898 15.7866 3.73934 16 3.73934C16.2135 3.73934 16.4401 3.90892 16.6217 4.20463L30.8191 27.3166C30.9936 27.6007 31.0466 27.8619 30.9607 28.0154Z" fill="white"/>
<path d="M16 23.2561C14.8965 23.2561 13.9987 24.1539 13.9987 25.2575C13.9987 26.361 14.8965 27.2588 16 27.2588C17.1036 27.2588 18.0014 26.361 18.0014 25.2575C18.0014 24.1539 17.1036 23.2561 16 23.2561ZM16 26.2587C15.4479 26.2587 14.9988 25.8096 14.9988 25.2575C14.9988 24.7054 15.4479 24.2562 16 24.2562C16.5522 24.2562 17.0013 24.7054 17.0013 25.2575C17.0013 25.8096 16.5522 26.2587 16 26.2587Z" fill="white"/>
<path d="M10.9956 23.2561C9.89209 23.2561 8.99426 24.1539 8.99426 25.2575C8.99426 26.361 9.89209 27.2588 10.9956 27.2588C12.0991 27.2588 12.997 26.361 12.997 25.2575C12.997 24.1539 12.0992 23.2561 10.9956 23.2561ZM10.9956 26.2587C10.4435 26.2587 9.99435 25.8096 9.99435 25.2575C9.99435 24.7054 10.4435 24.2562 10.9956 24.2562C11.5477 24.2562 11.9969 24.7054 11.9969 25.2575C11.9969 25.8096 11.5477 26.2587 10.9956 26.2587Z" fill="white"/>
<path d="M21.0044 23.2561C19.9009 23.2561 19.003 24.1539 19.003 25.2575C19.003 26.361 19.9009 27.2588 21.0044 27.2588C22.1079 27.2588 23.0057 26.361 23.0057 25.2575C23.0057 24.1539 22.108 23.2561 21.0044 23.2561ZM22.0057 25.2575C22.0057 25.3472 21.9927 25.4337 21.9705 25.5164L20.7455 24.2914C20.8283 24.2692 20.9148 24.2562 21.0045 24.2562C21.5565 24.2562 22.0057 24.7054 22.0057 25.2575ZM20.0031 25.2575C20.0031 25.1678 20.0161 25.0813 20.0383 24.9985L21.2634 26.2235C21.1806 26.2457 21.0941 26.2587 21.0045 26.2587C20.4523 26.2587 20.0031 25.8096 20.0031 25.2575Z" fill="white"/>
<path d="M13.9987 17.2504C13.9987 18.3539 14.8965 19.2517 16 19.2517C17.1036 19.2517 18.0014 18.3539 18.0014 17.2504C18.0014 16.1468 17.1036 15.249 16 15.249C14.8965 15.249 13.9987 16.1468 13.9987 17.2504ZM17.0013 17.2504C17.0013 17.8025 16.5522 18.2517 16 18.2517C15.4479 18.2517 14.9988 17.8025 14.9988 17.2504C14.9988 16.6983 15.4479 16.2491 16 16.2491C16.5522 16.2491 17.0013 16.6983 17.0013 17.2504Z" fill="white"/>
<path d="M16 11.2449C17.1036 11.2449 18.0014 10.3471 18.0014 9.24354C18.0014 8.14001 17.1036 7.24219 16 7.24219C14.8965 7.24219 13.9987 8.14001 13.9987 9.24354C13.9987 10.3471 14.8965 11.2449 16 11.2449ZM16 8.24227C16.5522 8.24227 17.0013 8.69143 17.0013 9.24354C17.0013 9.79565 16.5522 10.2448 16 10.2448C15.4479 10.2448 14.9988 9.79565 14.9988 9.24354C14.9988 8.69143 15.4479 8.24227 16 8.24227Z" fill="white"/>
<path d="M10.9956 19.2517C12.0991 19.2517 12.997 18.3539 12.997 17.2504C12.997 16.1468 12.0991 15.249 10.9956 15.249C9.89209 15.249 8.99426 16.1468 8.99426 17.2504C8.99426 18.3539 9.89209 19.2517 10.9956 19.2517ZM10.9956 16.2491C11.5477 16.2491 11.9969 16.6983 11.9969 17.2504C11.9969 17.8025 11.5477 18.2517 10.9956 18.2517C10.4435 18.2517 9.99435 17.8025 9.99435 17.2504C9.99435 16.6983 10.4435 16.2491 10.9956 16.2491Z" fill="white"/>
<path d="M19.003 17.2504C19.003 18.3539 19.9009 19.2517 21.0044 19.2517C22.1079 19.2517 23.0057 18.3539 23.0057 17.2504C23.0057 16.1468 22.108 15.249 21.0044 15.249C19.9008 15.249 19.003 16.1468 19.003 17.2504ZM21.0044 18.2517C20.6345 18.2517 20.3116 18.0495 20.1383 17.7504H21.8705C21.6972 18.0495 21.3743 18.2517 21.0044 18.2517ZM21.0044 16.2491C21.3742 16.2491 21.6971 16.4512 21.8705 16.7503H20.1383C20.3116 16.4512 20.6345 16.2491 21.0044 16.2491Z" fill="white"/>
<path d="M26.0088 23.2561C24.9052 23.2561 24.0074 24.1539 24.0074 25.2575C24.0074 26.361 24.9052 27.2588 26.0088 27.2588C27.1123 27.2588 28.0101 26.361 28.0101 25.2575C28.0101 24.1539 27.1123 23.2561 26.0088 23.2561ZM26.0088 26.2587C25.4566 26.2587 25.0075 25.8096 25.0075 25.2575C25.0075 24.7054 25.4566 24.2562 26.0088 24.2562C26.5609 24.2562 27.01 24.7054 27.01 25.2575C27.01 25.8096 26.5609 26.2587 26.0088 26.2587Z" fill="white"/>
<path d="M5.99125 23.2561C4.88772 23.2561 3.9899 24.1539 3.9899 25.2575C3.9899 26.361 4.88766 27.2588 5.99125 27.2588C7.09485 27.2588 7.99261 26.361 7.99261 25.2575C7.99261 24.1539 7.09478 23.2561 5.99125 23.2561ZM5.99125 24.2562C6.36116 24.2562 6.68406 24.4583 6.85739 24.7574H5.12512C5.29851 24.4583 5.62135 24.2562 5.99125 24.2562ZM5.99125 26.2587C5.62141 26.2587 5.29851 26.0566 5.12512 25.7575H6.85739C6.68406 26.0567 6.36116 26.2587 5.99125 26.2587Z" fill="white"/>
<path d="M20.5036 21.254C20.5036 20.1505 19.6058 19.2527 18.5022 19.2527C17.3987 19.2527 16.5009 20.1505 16.5009 21.254C16.5009 22.3576 17.3987 23.2554 18.5022 23.2554C19.6058 23.2554 20.5036 22.3576 20.5036 21.254ZM18.5022 22.2553C17.9501 22.2553 17.501 21.8062 17.501 21.254C17.501 20.7019 17.9501 20.2528 18.5022 20.2528C19.0543 20.2528 19.5035 20.7019 19.5035 21.254C19.5035 21.8062 19.0543 22.2553 18.5022 22.2553Z" fill="white"/>
<path d="M15.4992 21.254C15.4992 20.1505 14.6014 19.2527 13.4978 19.2527C12.3943 19.2527 11.4965 20.1505 11.4965 21.254C11.4965 22.3576 12.3943 23.2554 13.4978 23.2554C14.6014 23.2554 15.4992 22.3576 15.4992 21.254ZM13.4978 20.2528C13.5875 20.2528 13.674 20.2657 13.7568 20.288L12.5317 21.513C12.5096 21.4302 12.4966 21.3437 12.4966 21.254C12.4966 20.7019 12.9457 20.2528 13.4978 20.2528ZM13.4978 22.2553C13.4081 22.2553 13.3216 22.2424 13.2389 22.2201L14.4639 20.9951C14.4861 21.0778 14.4991 21.1643 14.4991 21.254C14.4991 21.8062 14.0499 22.2553 13.4978 22.2553Z" fill="white"/>
<path d="M16.5009 13.247C16.5009 14.3505 17.3987 15.2483 18.5022 15.2483C19.6058 15.2483 20.5036 14.3505 20.5036 13.247C20.5036 12.1434 19.6058 11.2456 18.5022 11.2456C17.3987 11.2456 16.5009 12.1434 16.5009 13.247ZM18.5022 12.2456C19.0543 12.2456 19.5035 12.6948 19.5035 13.2469C19.5035 13.799 19.0543 14.2482 18.5022 14.2482C17.9501 14.2482 17.501 13.799 17.501 13.2469C17.501 12.6948 17.9501 12.2456 18.5022 12.2456Z" fill="white"/>
<path d="M13.4978 15.2483C14.6014 15.2483 15.4992 14.3505 15.4992 13.247C15.4992 12.1434 14.6014 11.2456 13.4978 11.2456C12.3943 11.2456 11.4965 12.1434 11.4965 13.247C11.4965 14.3505 12.3943 15.2483 13.4978 15.2483ZM14.4991 13.247C14.4991 13.6169 14.297 13.9398 13.9979 14.1131V12.3808C14.297 12.5542 14.4991 12.8771 14.4991 13.247ZM12.9978 12.3808V14.1131C12.6987 13.9397 12.4966 13.6168 12.4966 13.247C12.4966 12.8771 12.6987 12.5542 12.9978 12.3808Z" fill="white"/>
<path d="M25.508 21.254C25.508 20.1505 24.6101 19.2527 23.5066 19.2527C22.4031 19.2527 21.5052 20.1505 21.5052 21.254C21.5052 22.3576 22.4031 23.2554 23.5066 23.2554C24.6101 23.2554 25.508 22.3576 25.508 21.254ZM23.5066 22.2553C22.9545 22.2553 22.5053 21.8062 22.5053 21.254C22.5053 20.7019 22.9545 20.2528 23.5066 20.2528C24.0587 20.2528 24.5079 20.7019 24.5079 21.254C24.5079 21.8062 24.0587 22.2553 23.5066 22.2553Z" fill="white"/>
<path d="M10.4948 21.254C10.4948 20.1505 9.597 19.2527 8.49347 19.2527C7.38994 19.2527 6.49211 20.1505 6.49211 21.254C6.49211 22.3576 7.38994 23.2554 8.49347 23.2554C9.597 23.2554 10.4948 22.3576 10.4948 21.254ZM8.49347 22.2553C7.94136 22.2553 7.4922 21.8062 7.4922 21.254C7.4922 20.7019 7.94136 20.2528 8.49347 20.2528C9.04558 20.2528 9.49474 20.7019 9.49474 21.254C9.49474 21.8062 9.04558 22.2553 8.49347 22.2553Z" fill="white"/>
</g>
<defs>
<clipPath id="clip0_17_3196">
<rect width="32" height="32" fill="white"/>
</clipPath>
</defs>
</svg>
