<svg width="32" height="32" viewBox="0 0 32 32" fill="none" xmlns="http://www.w3.org/2000/svg">
<g clip-path="url(#clip0_17_3084)">
<path d="M12.0058 15.1179C11.5442 14.7167 10.9451 14.4883 10.3164 14.4883C8.90962 14.4883 7.76506 15.6135 7.76506 16.9965C7.76506 19.6822 11.6007 21.8328 11.764 21.9231C11.8392 21.9647 11.9226 21.9855 12.0059 21.9855C12.0892 21.9855 12.1725 21.9647 12.2477 21.9231C12.411 21.8329 16.2466 19.6822 16.2466 16.9965C16.2466 15.6135 15.1021 14.4883 13.6952 14.4883C13.0665 14.4883 12.4673 14.7167 12.0058 15.1179ZM15.2466 16.9965C15.2466 18.6065 13.0944 20.2459 12.0055 20.9072C10.9162 20.2471 8.765 18.6103 8.765 16.9965C8.765 16.1648 9.46094 15.4883 10.3164 15.4883C10.8281 15.4883 11.3067 15.7343 11.597 16.1463C11.6907 16.2793 11.8431 16.3584 12.0058 16.3584C12.1685 16.3584 12.3209 16.2793 12.4146 16.1463C12.7049 15.7342 13.1836 15.4883 13.6952 15.4883C14.5506 15.4883 15.2466 16.1648 15.2466 16.9965Z" fill="white"/>
<path d="M26.2429 0H13.7516C12.3739 0 11.2529 1.12088 11.2529 2.49863V3.99725H5.75718C4.37943 3.99725 3.25856 5.11812 3.25856 6.49587V29.5014C3.25856 30.8792 4.37943 32.0001 5.75718 32.0001H18.2484C19.6262 32.0001 20.7471 30.8792 20.7471 29.5014V28.0028H26.2429C27.6206 28.0028 28.7415 26.8819 28.7415 25.5042V2.49863C28.7415 1.12088 27.6206 0 26.2429 0ZM19.7471 7.48694C19.747 7.49213 19.747 7.49738 19.7471 7.50256V10.4929C19.7471 10.4929 19.7471 10.4931 19.7471 10.4932V13.4908C19.7471 13.4909 19.7471 13.4909 19.7471 13.4911V16.4886C19.7471 16.4887 19.7471 16.4888 19.7471 16.4889V19.4865C19.7471 19.4866 19.7471 19.4867 19.7471 19.4868V22.4844C19.7471 22.4844 19.7471 22.4846 19.7471 22.4847V29.5012C19.7471 30.3276 19.0748 30.9999 18.2484 30.9999H5.75718C4.93081 30.9999 4.25856 30.3276 4.25856 29.5012V6.49581C4.25856 5.6695 4.93081 4.99719 5.75718 4.99719H11.7482C11.7498 4.99719 11.7514 4.99744 11.753 4.99744C11.7546 4.99744 11.7562 4.99725 11.7578 4.99719H14.2461C14.2479 4.99719 14.2495 4.99744 14.2512 4.99744C14.253 4.99744 14.2546 4.99719 14.2564 4.99719H18.2484C19.0748 4.99719 19.7471 5.6695 19.7471 6.49581V7.48694ZM14.7512 3.99719V3.49825H15.5431L16.042 3.99719H14.7512ZM16.9573 3.49825H18.541L19.2502 4.20756C18.9433 4.07263 18.6046 3.99719 18.2484 3.99719H17.4562L16.9573 3.49825ZM19.9552 3.49825H21.5389L25.2432 7.20256V8.78625L19.9552 3.49825ZM22.9531 3.49825H25.2432V5.78837L22.9531 3.49825ZM20.5367 5.494L25.2432 10.2005V11.7842L20.7471 7.28806V6.49587C20.7471 6.13963 20.6716 5.80087 20.5367 5.494ZM20.7471 22.2776V20.6939L24.5361 24.4829H22.9524L20.7471 22.2776ZM21.5382 24.4829H20.7471V23.6917L21.5382 24.4829ZM20.7471 19.2797V17.696L25.2432 22.1922V23.7759L20.7471 19.2797ZM20.7471 16.2817V14.6981L25.2432 19.1942V20.7779L20.7471 16.2817ZM20.7471 13.2839V11.7002L25.2432 16.1963V17.7801L20.7471 13.2839ZM20.7471 10.2859V8.70225L25.2432 13.1984V14.7821L20.7471 10.2859ZM27.7415 25.5042C27.7415 26.3305 27.0692 27.0028 26.2429 27.0028H20.7471V25.4829H25.7432C25.7596 25.4829 25.7761 25.4821 25.7925 25.4804C25.7999 25.4798 25.8071 25.4783 25.8144 25.4773C25.8232 25.476 25.8321 25.475 25.8409 25.4732C25.8492 25.4716 25.8574 25.4693 25.8657 25.4672C25.8732 25.4653 25.8808 25.4636 25.8883 25.4614C25.8964 25.4589 25.9044 25.4559 25.9123 25.453C25.9197 25.4504 25.9272 25.4479 25.9344 25.4449C25.9419 25.4418 25.9491 25.4382 25.9563 25.4347C25.9638 25.4312 25.9714 25.4279 25.9788 25.4239C25.9858 25.4202 25.9925 25.4159 25.9993 25.4118C26.0065 25.4075 26.0137 25.4035 26.0207 25.3988C26.0284 25.3937 26.0356 25.388 26.0429 25.3825C26.0486 25.3783 26.0545 25.3743 26.0601 25.3697C26.0856 25.3488 26.109 25.3254 26.1299 25.2998C26.1345 25.2943 26.1384 25.2884 26.1427 25.2827C26.1482 25.2754 26.1539 25.2682 26.1591 25.2606C26.1637 25.2536 26.1678 25.2463 26.1721 25.2391C26.1762 25.2323 26.1804 25.2257 26.1842 25.2187C26.1882 25.2113 26.1916 25.2036 26.1951 25.1959C26.1985 25.1888 26.2021 25.1817 26.2051 25.1744C26.2082 25.1669 26.2107 25.1593 26.2134 25.1517C26.2162 25.1439 26.2192 25.1362 26.2216 25.1282C26.2239 25.1206 26.2256 25.1128 26.2276 25.1051C26.2296 25.097 26.2319 25.089 26.2335 25.0807C26.2353 25.0717 26.2364 25.0626 26.2377 25.0534C26.2387 25.0464 26.24 25.0395 26.2407 25.0324C26.2424 25.0159 26.2432 24.9994 26.2432 24.9828V21.9853C26.2432 21.9851 26.2432 21.9851 26.2432 21.9849V18.9874C26.2432 18.9873 26.2432 18.9872 26.2432 18.9871V15.9894C26.2432 15.9893 26.2432 15.9892 26.2432 15.9891V12.9915C26.2432 12.9914 26.2432 12.9913 26.2432 12.9912V9.99362C26.2432 9.99356 26.2432 9.99344 26.2432 9.99331V6.99563C26.2432 6.9955 26.2432 6.99544 26.2432 6.99531V2.99825C26.2432 2.72213 26.0194 2.49825 25.7432 2.49825H21.7461H21.746H15.7503H15.7502H14.2512C13.9751 2.49825 13.7512 2.72213 13.7512 2.99825V3.99719H12.253V2.49863C12.253 1.67231 12.9252 1 13.7516 1H26.2429C27.0692 1 27.7416 1.67225 27.7416 2.49863L27.7415 25.5042Z" fill="white"/>
<path d="M6.22531 10.6685L6.47837 9.99362H8.03374L8.28681 10.6685C8.36212 10.8692 8.55256 10.9931 8.75506 10.9931C8.81337 10.9931 8.87274 10.9828 8.93056 10.9611C9.18912 10.8642 9.32012 10.5759 9.22318 10.3174L7.72424 6.32012C7.72237 6.31519 7.71999 6.31062 7.71799 6.30581C7.71462 6.29756 7.71118 6.28931 7.70731 6.28119C7.70381 6.27375 7.69999 6.26656 7.69612 6.25937C7.69231 6.25231 7.68849 6.24531 7.68443 6.2385C7.67999 6.23106 7.67524 6.22388 7.67049 6.21669C7.66624 6.21038 7.66199 6.20419 7.65749 6.19812C7.65237 6.19119 7.64706 6.18444 7.64156 6.17787C7.63662 6.17181 7.63156 6.16594 7.62631 6.16013C7.62087 6.15406 7.61524 6.14825 7.60949 6.14256C7.60356 6.13662 7.59756 6.13081 7.59131 6.12519C7.58574 6.12012 7.57999 6.11525 7.57418 6.1105C7.56737 6.10487 7.56043 6.09937 7.55331 6.09406C7.54743 6.08975 7.54143 6.08556 7.53537 6.0815C7.52799 6.0765 7.52062 6.07169 7.51293 6.06712C7.50631 6.06319 7.49949 6.05944 7.49268 6.05575C7.48531 6.05181 7.47799 6.04794 7.47037 6.04431C7.46249 6.04056 7.45443 6.03719 7.44631 6.03387C7.44137 6.03181 7.43668 6.02938 7.43162 6.0275C7.42943 6.02669 7.42724 6.02619 7.42506 6.02544C7.41631 6.02225 7.40743 6.01963 7.39849 6.017C7.39156 6.01494 7.38462 6.01269 7.37762 6.01094C7.36881 6.00869 7.35987 6.00706 7.35093 6.00531C7.34374 6.00394 7.33656 6.00231 7.32937 6.00125C7.32049 5.99994 7.31156 5.99925 7.30268 5.99837C7.29537 5.99769 7.28812 5.99675 7.28087 5.99637C7.27187 5.99594 7.26281 5.99613 7.25374 5.99619C7.24656 5.99625 7.23937 5.99606 7.23218 5.99637C7.22324 5.99681 7.21431 5.99788 7.20537 5.99881C7.19806 5.99956 7.19074 6.00006 7.18356 6.00112C7.17518 6.00237 7.16681 6.00419 7.15843 6.00587C7.15062 6.00744 7.14281 6.00888 7.13512 6.01081C7.12737 6.01275 7.11968 6.01519 7.11199 6.01756C7.10381 6.02006 7.09562 6.02244 7.08756 6.02537C7.08524 6.02619 7.08287 6.02669 7.08056 6.02762C7.07518 6.02962 7.07018 6.03219 7.06493 6.03438C7.05731 6.03756 7.04962 6.04069 7.04212 6.04425C7.03418 6.048 7.02649 6.05206 7.01881 6.05619C7.01231 6.05969 7.00581 6.06319 6.99943 6.067C6.99156 6.07169 6.98387 6.07669 6.97631 6.08181C6.97043 6.08575 6.96462 6.08975 6.95893 6.09394C6.95162 6.09931 6.94462 6.10494 6.93762 6.11069C6.93193 6.11538 6.92631 6.12012 6.92081 6.12512C6.91449 6.13081 6.90837 6.13675 6.90243 6.14269C6.89681 6.14837 6.89124 6.15412 6.88587 6.16006C6.88056 6.16594 6.87549 6.17187 6.87049 6.178C6.86506 6.18456 6.85981 6.19119 6.85468 6.19812C6.85012 6.20425 6.84587 6.2105 6.84162 6.21681C6.83681 6.22394 6.83212 6.23112 6.82768 6.23856C6.82356 6.24544 6.81974 6.25244 6.81599 6.2595C6.81212 6.26669 6.80831 6.27381 6.80481 6.28125C6.80093 6.28931 6.79749 6.29763 6.79412 6.30594C6.79212 6.31075 6.78974 6.31531 6.78793 6.32025L5.28899 10.3174C5.19206 10.576 5.32306 10.8642 5.58162 10.9611C5.63949 10.9828 5.69881 10.9931 5.75712 10.9931C5.95949 10.9931 6.15006 10.8693 6.22531 10.6685ZM7.25606 7.91975L7.65874 8.99362H6.85337L7.25606 7.91975Z" fill="white"/>
<path d="M18.424 25.0361C18.1656 24.9392 17.8772 25.0701 17.7802 25.3287L17.5272 26.0036H15.9718L15.7187 25.3287C15.6217 25.0702 15.3336 24.9392 15.075 25.0361C14.8164 25.1331 14.6854 25.4213 14.7824 25.6799L16.2813 29.6771C16.2823 29.6797 16.2838 29.6819 16.2848 29.6845C16.2928 29.7048 16.3019 29.7247 16.3125 29.7438C16.3136 29.7458 16.3146 29.748 16.3157 29.75C16.3267 29.7692 16.3393 29.7874 16.3528 29.8051C16.3562 29.8096 16.3596 29.8139 16.3632 29.8182C16.3771 29.8352 16.3918 29.8514 16.4079 29.8666C16.4097 29.8683 16.4117 29.8698 16.4136 29.8714C16.4286 29.8851 16.4446 29.8976 16.4613 29.9094C16.4651 29.9121 16.4689 29.9149 16.4728 29.9174C16.4911 29.9296 16.5102 29.9409 16.5304 29.9507C16.5331 29.952 16.536 29.953 16.5387 29.9543C16.5502 29.9597 16.5618 29.965 16.5739 29.9696C16.5806 29.9721 16.5874 29.9739 16.5941 29.9761C16.5984 29.9776 16.6027 29.979 16.6071 29.9803C16.628 29.9866 16.6491 29.9914 16.6702 29.9949C16.6739 29.9955 16.6777 29.9959 16.6814 29.9964C16.7042 29.9995 16.7269 30.0016 16.7494 30.0016H16.7495H16.7496C16.7721 30.0016 16.7949 29.9995 16.8176 29.9964C16.8213 29.9959 16.8251 29.9955 16.8288 29.9949C16.8499 29.9914 16.871 29.9866 16.8919 29.9803C16.8962 29.979 16.9005 29.9776 16.9047 29.9761C16.9115 29.9739 16.9183 29.9721 16.9251 29.9696C16.9372 29.965 16.9488 29.9596 16.9604 29.9542C16.9631 29.953 16.9658 29.9521 16.9684 29.9507C16.9887 29.9409 17.0079 29.9296 17.0262 29.9174C17.0301 29.9148 17.0337 29.9121 17.0375 29.9095C17.0544 29.8976 17.0706 29.8849 17.0857 29.8711C17.0874 29.8696 17.0892 29.8682 17.0909 29.8666C17.1071 29.8514 17.1219 29.8351 17.1358 29.8181C17.1393 29.8138 17.1427 29.8095 17.1461 29.8051C17.1596 29.7874 17.1722 29.7691 17.1833 29.7498C17.1844 29.7479 17.1853 29.7458 17.1864 29.7439C17.197 29.7247 17.2061 29.7047 17.2142 29.6843C17.2152 29.6817 17.2167 29.6795 17.2176 29.6769L18.7166 25.6797C18.8136 25.4213 18.6826 25.1331 18.424 25.0361ZM16.7494 28.0775L16.3467 27.0036H17.1521L16.7494 28.0775Z" fill="white"/>
<path d="M14.2512 28.5018H6.75681V12.4917C6.75681 12.2156 6.53293 11.9917 6.25681 11.9917C5.98068 11.9917 5.75681 12.2156 5.75681 12.4917V29.0018C5.75681 29.278 5.98068 29.5018 6.25681 29.5018H14.2512C14.5274 29.5018 14.7512 29.278 14.7512 29.0018C14.7512 28.7257 14.5274 28.5018 14.2512 28.5018Z" fill="white"/>
<path d="M9.75438 7.49561H17.2488V23.5057C17.2488 23.7818 17.4727 24.0057 17.7488 24.0057C18.0249 24.0057 18.2488 23.7818 18.2488 23.5057V6.99561C18.2488 6.71948 18.0249 6.49561 17.7488 6.49561H9.75438C9.47825 6.49561 9.25438 6.71948 9.25438 6.99561C9.25438 7.27173 9.47819 7.49561 9.75438 7.49561Z" fill="white"/>
</g>
<defs>
<clipPath id="clip0_17_3084">
<rect width="32" height="32" fill="white"/>
</clipPath>
</defs>
</svg>
