<svg width="32" height="32" viewBox="0 0 32 32" fill="none" xmlns="http://www.w3.org/2000/svg">
<g clip-path="url(#clip0_17_3163)">
<path d="M31.1529 2.532C30.6844 2.20568 30.0845 1.88275 29.6637 1.66925C29.0901 1.37825 27.4934 0.622997 27 0.622997C25.9179 0.622997 24.9396 0.725997 23.9936 0.825559C22.0921 1.02581 20.1259 1.23281 17.0972 0.632559C13.6316 -0.0543781 10.1469 0.773997 7.834 1.58987C7.45644 1.72306 7.03331 1.61575 6.70219 1.30275C6.23838 0.864372 5.63387 0.622997 5 0.622997H2.5C1.1215 0.622997 0 1.7445 0 3.123V13.623C0 15.0015 1.1215 16.123 2.5 16.123H5C6.3785 16.123 7.5 15.0015 7.5 13.623C7.5 12.9038 8.00425 12.2734 8.673 12.1565C9.86163 11.9489 10.9689 12.3114 11.7773 12.5762L11.8446 12.5983C12.5755 12.8372 13.5141 12.8833 14.407 12.8463C12.4407 14.4462 10.9865 16.9749 10.0706 20.3955C9.16225 23.7882 8.9875 27.2918 9.00088 29.6336C9.00713 30.7306 9.90394 31.6231 11 31.6231H20.0333C21.1096 31.6231 21.9856 30.7786 22.0277 29.7006C22.2327 24.4492 23.5657 19.3976 25.9896 14.6862C27.9396 10.8957 30.0837 8.34 31.1882 7.15393C31.7118 6.59168 32 5.85931 32 5.09162V3.623C32 3.27175 31.7467 2.9455 31.1529 2.532ZM31 5.09162C31 5.60556 30.807 6.09587 30.4564 6.47225C29.3167 7.69612 27.1054 10.3312 25.1004 14.2285C22.6092 19.0707 21.2393 24.263 21.0285 29.6614C21.0074 30.2006 20.5703 30.6229 20.0334 30.6229H11C10.4522 30.6229 10.0039 30.1765 10.0009 29.6277C9.98788 27.3472 10.157 23.9392 11.0366 20.654C12.1436 16.5199 14.0522 13.8024 16.7094 12.577C16.9363 12.4724 17.0513 12.2162 16.9785 11.9772C16.9517 11.8892 16.8421 11.6274 16.4906 11.6274C16.4504 11.6274 16.4071 11.6308 16.3603 11.6382C15.5063 11.7752 13.3868 12.0502 12.1554 11.6477L12.0886 11.6258C11.2312 11.345 9.9355 10.9204 8.50081 11.1714C7.34144 11.3741 6.5 12.4051 6.5 13.623C6.5 14.4501 5.82713 15.123 5 15.123H2.5C1.67287 15.123 1 14.4501 1 13.623V3.123C1 2.29593 1.67287 1.623 2.5 1.623H5C5.37738 1.623 5.73794 1.76737 6.01531 2.0295C6.61519 2.5965 7.43963 2.78943 8.16669 2.53293C10.3618 1.75856 13.6592 0.970559 16.9028 1.61343C20.0799 2.24312 22.1227 2.02806 24.0984 1.82006C25.0565 1.71918 25.9617 1.62387 26.9853 1.623C27.1698 1.6515 28.0129 1.96243 29.0934 2.50181C30.3911 3.1495 30.8843 3.55906 31 3.70068V5.09162Z" fill="white"/>
<path d="M22.9994 3.93545C23.0137 3.93545 23.0281 3.93482 23.0426 3.93357C23.3987 3.90314 23.7383 3.86857 24.0523 3.83576C24.327 3.80714 24.5263 3.5612 24.4976 3.28651C24.4689 3.01189 24.2233 2.81207 23.9484 2.8412C23.6392 2.87351 23.3052 2.90745 22.9573 2.93726C22.6822 2.96076 22.4782 3.20295 22.5017 3.47807C22.5241 3.7387 22.7426 3.93545 22.9994 3.93545Z" fill="white"/>
<path d="M6.92799 4.6042C7.11906 4.63195 7.31381 4.64601 7.50681 4.64601C7.95887 4.64601 8.40474 4.56957 8.83199 4.41888C10.1792 3.94363 12.2391 3.3772 14.402 3.3772C15.1406 3.3772 15.8512 3.44376 16.514 3.57513C18.059 3.88138 19.5052 4.03026 20.9352 4.03026C21.2113 4.03026 21.4352 3.80638 21.4352 3.53026C21.4352 3.25413 21.2113 3.03026 20.9352 3.03026C19.5712 3.03026 18.1886 2.88763 16.7084 2.59426C15.9817 2.45026 15.2057 2.3772 14.4019 2.3772C12.0976 2.3772 9.92018 2.97463 8.49931 3.47582C8.04193 3.6372 7.55031 3.68413 7.07168 3.61457C6.79831 3.57482 6.54468 3.76426 6.50506 4.03757C6.46531 4.31082 6.65468 4.56451 6.92799 4.6042Z" fill="white"/>
<path d="M29.7635 4.00588C28.9751 3.51707 27.5538 2.85163 26.9433 2.64976C26.8904 2.63232 26.8351 2.6237 26.7792 2.62457C26.5182 2.62826 26.2534 2.63832 25.97 2.65538C25.6944 2.67195 25.4843 2.90882 25.5009 3.18445C25.5175 3.46007 25.7546 3.67013 26.03 3.65357C26.2666 3.63932 26.4889 3.63026 26.7067 3.62595C27.2293 3.81295 28.2989 4.31407 28.9999 4.71538V5.0917C28.9999 5.09857 28.9977 5.10401 28.9927 5.10932C28.0278 6.14551 26.1267 8.37451 24.2361 11.6608C21.9122 15.7003 20.3393 20.0327 19.5611 24.5378C19.5141 24.8099 19.6966 25.0686 19.9687 25.1156C19.9975 25.1206 20.0261 25.1229 20.0544 25.1229C20.2932 25.1229 20.5045 24.9513 20.5465 24.7079C21.3046 20.3188 22.8376 16.0969 25.1029 12.1594C26.9439 8.95932 28.7887 6.7957 29.7245 5.79082C29.9021 5.60013 29.9999 5.35182 29.9999 5.09163V4.43088C30 4.25782 29.9106 4.09707 29.7635 4.00588Z" fill="white"/>
<path d="M19.8218 26.1264C19.5471 26.0939 19.2989 26.2901 19.2666 26.5643C19.1862 27.2444 19.1235 27.9349 19.0794 28.6229H12.0083C12.0492 26.6064 12.2584 23.8231 12.9686 21.1712C13.9145 17.6383 15.4549 15.3578 17.5469 14.3931C18.6049 13.9051 19.1916 12.7249 18.9417 11.5868C18.692 10.4487 17.665 9.62263 16.4998 9.62263C16.2981 9.62263 16.1512 9.64613 16.0434 9.66338C15.0486 9.82288 14.3138 9.85632 13.8724 9.85632C13.1492 9.85632 12.833 9.76488 12.777 9.74657L12.7108 9.72494C11.9449 9.47407 10.7876 9.095 9.39688 9.095C8.97663 9.095 8.55937 9.13069 8.1565 9.20113C6.20094 9.54288 4.74031 11.1534 4.52688 13.1228H3V3.62225L4.98562 3.61963C5.26175 3.61925 5.48531 3.39513 5.48494 3.11894C5.48456 2.843 5.26081 2.61963 4.98494 2.61963C4.98469 2.61963 4.98444 2.61963 4.98425 2.61963L2.49931 2.62294C2.22344 2.62332 2 2.84707 2 3.12294V13.6229C2 13.8991 2.22387 14.1229 2.5 14.1229H5C5.27612 14.1229 5.5 13.8991 5.5 13.6229C5.5 11.9181 6.68963 10.4728 8.32869 10.1863C8.67481 10.1258 9.03425 10.0952 9.39688 10.0952C10.6279 10.0952 11.6941 10.4444 12.3999 10.6756L12.4661 10.6973C12.6481 10.7568 13.0727 10.8565 13.8724 10.8565C14.3501 10.8565 15.1419 10.8208 16.2021 10.6509C16.2924 10.6364 16.3776 10.6228 16.4998 10.6228C17.1989 10.6228 17.8151 11.1184 17.965 11.8013C18.1149 12.4843 17.7629 13.1924 17.1281 13.4851C14.7534 14.5802 13.029 17.0791 12.0026 20.9127C11.204 23.895 11.0173 27.0215 11.0013 29.1192C11.0002 29.2524 11.0524 29.3806 11.1464 29.4752C11.2402 29.5698 11.368 29.623 11.5013 29.623H19.5513C19.8174 29.623 20.0369 29.4146 20.0506 29.1488C20.0931 28.3267 20.1634 27.4966 20.2597 26.6817C20.2921 26.4074 20.0961 26.1588 19.8218 26.1264Z" fill="white"/>
</g>
<defs>
<clipPath id="clip0_17_3163">
<rect width="32" height="32" fill="white"/>
</clipPath>
</defs>
</svg>
