<svg width="32" height="32" viewBox="0 0 32 32" fill="none" xmlns="http://www.w3.org/2000/svg">
<path d="M28.5 14.5C28.5 11.5265 27.4381 8.64525 25.5098 6.38706C23.7783 4.35931 21.4453 2.93913 18.8744 2.33262L20.3535 0.8535C20.4965 0.7105 20.5393 0.495438 20.4619 0.308625C20.3844 0.121813 20.2022 0 20 0H12C11.7978 0 11.6154 0.121813 11.5381 0.308625C11.4607 0.495438 11.5034 0.7105 11.6464 0.8535L13.1255 2.33256C10.5554 2.93894 8.22294 4.3585 6.49156 6.3855C4.56244 8.64394 3.5 11.5258 3.5 14.5C3.5 19.9942 7.06313 24.6719 12 26.3437V28.5H8.6875C8.30844 28.5 8 28.8084 8 29.1875V31.5C8 31.7761 8.22388 32 8.5 32H23.5C23.7761 32 24 31.7761 24 31.5V29.1875C24 28.8084 23.6916 28.5 23.3125 28.5H20V26.3437C24.9369 24.6719 28.5 19.9942 28.5 14.5ZM18.7929 1L16 3.79294L13.2071 1H18.7929ZM20.1049 7.39012C20.1836 7.43562 20.2696 7.45719 20.3544 7.45719C20.5273 7.45719 20.6953 7.3675 20.7879 7.20713L21.1748 6.537C22.2867 7.26206 23.238 8.21331 23.963 9.32519L18.866 12.2679C18.6827 12.3737 18.5923 12.578 18.6219 12.7753C18.5954 12.8876 18.6072 13.0094 18.6645 13.1199C18.8871 13.5486 18.9999 14.013 18.9999 14.5C18.9999 16.1542 17.6541 17.5 15.9999 17.5C14.3457 17.5 12.9999 16.1542 12.9999 14.5C12.9999 12.8458 14.3457 11.5 15.9999 11.5C16.4772 11.5 16.9332 11.6086 17.3552 11.8228C17.4574 11.8746 17.5688 11.8875 17.6733 11.8679C17.7146 11.8787 17.7568 11.8841 17.7986 11.8841C17.9714 11.8841 18.1394 11.7944 18.2321 11.634L19.8326 8.86187C19.9706 8.62275 19.8887 8.31694 19.6496 8.17887C19.4104 8.04075 19.1046 8.12269 18.9666 8.36187L17.5514 10.8131C17.2141 10.6706 16.8627 10.5762 16.5001 10.5314V5.01312C17.8656 5.08425 19.1556 5.44513 20.3099 6.03519L19.9219 6.70713C19.7838 6.94625 19.8658 7.25206 20.1049 7.39012ZM22.5 15H25.4869C25.4157 16.3655 25.0549 17.6556 24.4648 18.8098L19.6868 16.0513C19.8263 15.7211 19.9215 15.3681 19.9676 15H20.5C20.7761 15 21 14.7761 21 14.5C21 14.2239 20.7761 14 20.5 14H19.9683C19.9226 13.6383 19.8279 13.2836 19.6872 12.9486L24.4648 10.1902C25.0549 11.3444 25.4157 12.6345 25.4869 14H22.5C22.2239 14 22 14.2239 22 14.5C22 14.7761 22.2239 15 22.5 15ZM21.1748 22.463L18.4163 17.6851C18.7059 17.4648 18.9648 17.2059 19.1851 16.9163L23.963 19.6748C23.2379 20.7867 22.2867 21.7379 21.1748 22.463ZM11.6902 22.9648L14.4487 18.1868C14.7789 18.3263 15.1319 18.4215 15.5 18.4676V23.9869C14.1345 23.9157 12.8444 23.5549 11.6902 22.9648ZM8.037 19.6748L12.8149 16.9163C13.0352 17.2059 13.2941 17.4648 13.5837 17.6851L10.8252 22.463C9.71331 21.7379 8.76206 20.7867 8.037 19.6748ZM10.8252 6.537L13.5837 11.3149C13.2941 11.5352 13.0352 11.7941 12.8149 12.0837L8.037 9.32519C8.76206 8.21331 9.71331 7.26206 10.8252 6.537ZM15.5 10.5324C15.1319 10.5785 14.7789 10.6737 14.4487 10.8132L11.6902 6.03519C12.8444 5.44513 14.1345 5.08431 15.5 5.01312V10.5324ZM7.53519 10.1902L12.3132 12.9487C12.1737 13.2789 12.0785 13.6319 12.0324 14H6.51312C6.58431 12.6345 6.94513 11.3444 7.53519 10.1902ZM12.0324 15C12.0785 15.3681 12.1737 15.7211 12.3132 16.0513L7.53519 18.8098C6.94513 17.6556 6.58431 16.3655 6.51312 15H12.0324ZM16.5 18.4676C16.8681 18.4215 17.2211 18.3263 17.5513 18.1868L20.3098 22.9648C19.1556 23.5549 17.8655 23.9157 16.5 23.9869V18.4676ZM4.5 14.5C4.5 11.7637 5.47731 9.1125 7.25194 7.035C8.98269 5.00881 11.3656 3.64287 13.9718 3.17894L14.8556 4.06269C13.389 4.22237 12.0121 4.68481 10.7892 5.38681C10.776 5.39294 10.7629 5.39944 10.7501 5.40681C10.7344 5.41587 10.7194 5.42575 10.7051 5.43619C9.14944 6.34844 7.84844 7.64944 6.93619 9.20506C6.92575 9.21938 6.91588 9.23438 6.90681 9.25006C6.89938 9.263 6.89281 9.27619 6.88662 9.2895C6.00469 10.8258 5.5 12.6051 5.5 14.5C5.5 16.3949 6.00469 18.1742 6.88656 19.7106C6.89275 19.7239 6.89925 19.7371 6.90675 19.75C6.91388 19.7623 6.92219 19.7734 6.93019 19.7849C7.84275 21.345 9.14606 22.6496 10.7051 23.5639C10.7194 23.5743 10.7343 23.5842 10.7501 23.5933C10.7592 23.5985 10.7687 23.6024 10.7779 23.6069C12.3169 24.4929 14.1003 25 16 25C17.8997 25 19.6832 24.4929 21.2222 23.6069C21.2314 23.6023 21.2409 23.5985 21.25 23.5933C21.2657 23.5842 21.2806 23.5743 21.295 23.5639C22.854 22.6496 24.1573 21.345 25.0699 19.7849C25.0778 19.7734 25.0862 19.7623 25.0933 19.75C25.1007 19.7371 25.1073 19.7239 25.1135 19.7106C25.9953 18.1742 26.5 16.3949 26.5 14.5C26.5 12.6051 25.9953 10.8258 25.1134 9.28944C25.1073 9.27612 25.1007 9.26294 25.0933 9.25C25.0842 9.23431 25.0743 9.21938 25.0639 9.20506C24.1516 7.64944 22.8506 6.34844 21.295 5.43619C21.2807 5.42575 21.2658 5.41587 21.25 5.40681C21.237 5.39931 21.2237 5.39275 21.2104 5.3865C19.9876 4.68469 18.6108 4.22237 17.1444 4.06269L18.0282 3.17894C20.6351 3.643 23.0185 5.00956 24.7493 7.03644C26.5231 9.11375 27.5 11.7643 27.5 14.5C27.5 20.8411 22.3411 26 16 26C9.65887 26 4.5 20.8411 4.5 14.5ZM23 31H9V29.5H23V31ZM19 28.5H13V26.6352C13.9615 26.8729 14.9661 27 16 27C17.0339 27 18.0385 26.8729 19 26.6352V28.5Z" fill="white"/>
<path d="M17.7195 13.5566L16.8971 13.3142L16.4124 12.607C16.3192 12.471 16.1649 12.3896 16 12.3896C15.8351 12.3896 15.6808 12.471 15.5876 12.607L15.1029 13.3142L14.2805 13.5566C14.1223 13.6033 13.9973 13.7249 13.9464 13.8817C13.8954 14.0385 13.9251 14.2104 14.0256 14.3411L14.5484 15.0206L14.5249 15.8776C14.5204 16.0425 14.5974 16.199 14.7308 16.2959C14.8642 16.3928 15.0368 16.4177 15.1922 16.3625L16 16.0753L16.8078 16.3625C16.8623 16.3819 16.9189 16.3914 16.9753 16.3914C17.0795 16.3914 17.1826 16.3588 17.2692 16.2959C17.4027 16.199 17.4797 16.0425 17.4752 15.8776L17.4516 15.0206L17.9744 14.3411C18.075 14.2105 18.1046 14.0386 18.0537 13.8817C18.0027 13.7248 17.8777 13.6033 17.7195 13.5566ZM16.5506 14.5518C16.4805 14.6429 16.4439 14.7555 16.4471 14.8705L16.4555 15.1759L16.1676 15.0735C16.1134 15.0543 16.0567 15.0446 16.0001 15.0446C15.9434 15.0446 15.8867 15.0543 15.8326 15.0735L15.5446 15.1759L15.5531 14.8705C15.5562 14.7555 15.5196 14.643 15.4495 14.5518L15.2631 14.3096L15.5562 14.2231C15.6666 14.1906 15.7622 14.1211 15.8273 14.0262L16.0001 13.7741L16.1728 14.0262C16.2379 14.1211 16.3336 14.1906 16.4439 14.2231L16.737 14.3096L16.5506 14.5518Z" fill="white"/>
</svg>
