<svg width="32" height="32" viewBox="0 0 32 32" fill="none" xmlns="http://www.w3.org/2000/svg">
<g clip-path="url(#clip0_17_3116)">
<path d="M30.6984 9.66897C29.8643 7.73498 28.6727 6.00648 27.1566 4.53142C24.0345 1.49374 19.9131 -0.11351 15.5507 0.00623999C11.3541 0.121302 7.43055 1.89142 4.5028 4.99054C1.59918 8.06416 6.10352e-05 12.0886 6.10352e-05 16.3225V29.5008C6.10352e-05 30.8789 1.12118 32 2.49924 32H29.5008C30.8789 32 32 30.8789 32 29.5008V16C32 13.8015 31.5621 11.6715 30.6984 9.66897ZM31 29.5008C31 30.3275 30.3275 31 29.5008 31H2.49918C1.6725 31 0.999997 30.3275 0.999997 29.5008V16.3225C0.999997 12.345 2.50212 8.56447 5.22968 5.67729C7.97373 2.77261 11.6489 1.11361 15.5781 1.00586C15.7203 1.00193 15.8618 1.00005 16.0035 1.00005C19.9351 1.00005 23.6341 2.49942 26.4593 5.24817C29.3874 8.0971 30.9999 11.9155 30.9999 16V29.5008H31Z" fill="white"/>
<path d="M7.50005 20.5H3.50006C2.94869 20.5 2.50006 20.9486 2.50006 21.5V28.5C2.50006 29.0514 2.94869 29.5 3.50006 29.5H7.50005C8.05143 29.5 8.50005 29.0514 8.50005 28.5V21.5C8.50005 20.9486 8.05143 20.5 7.50005 20.5ZM7.50005 28.5H3.50006V21.5L7.50005 21.4999V28.5Z" fill="white"/>
<path d="M4.50005 25C4.50005 25.5514 4.94867 26 5.50004 26C6.05142 26 6.50004 25.5514 6.50004 25C6.50004 24.4486 6.05142 24 5.50004 24C4.94867 24 4.50005 24.4486 4.50005 25Z" fill="white"/>
<path d="M4.50006 23C4.63193 23 4.76068 22.9469 4.85381 22.8537C4.94693 22.7606 5.00006 22.6319 5.00006 22.5C5.00006 22.3681 4.94693 22.2394 4.85381 22.1462C4.76068 22.0531 4.63193 22 4.50006 22C4.36819 22 4.23944 22.0531 4.14631 22.1462C4.05319 22.2394 4.00006 22.3681 4.00006 22.5C4.00006 22.6312 4.05319 22.7606 4.14631 22.8537C4.23944 22.9469 4.36819 23 4.50006 23Z" fill="white"/>
<path d="M6.50004 23C6.63192 23 6.76067 22.9469 6.85379 22.8537C6.94692 22.7606 7.00004 22.6319 7.00004 22.5C7.00004 22.3681 6.94692 22.2394 6.85379 22.1462C6.76067 22.0531 6.63192 22 6.50004 22C6.36817 22 6.23942 22.0531 6.1463 22.1462C6.05317 22.2394 6.00005 22.3681 6.00005 22.5C6.00005 22.6319 6.05317 22.7606 6.1463 22.8537C6.23942 22.9469 6.36817 23 6.50004 23Z" fill="white"/>
<path d="M6.50004 27C6.36817 27 6.23942 27.0531 6.1463 27.1462C6.05317 27.2394 6.00005 27.3681 6.00005 27.5C6.00005 27.6319 6.05317 27.7606 6.1463 27.8537C6.23942 27.9469 6.36817 28 6.50004 28C6.63129 28 6.76067 27.9469 6.85379 27.8537C6.94692 27.7606 7.00004 27.6312 7.00004 27.5C7.00004 27.3681 6.94692 27.2394 6.85379 27.1462C6.76067 27.0531 6.63186 27 6.50004 27Z" fill="white"/>
<path d="M4.50006 28C4.63193 28 4.76068 27.9469 4.85381 27.8537C4.94693 27.7606 5.00006 27.6319 5.00006 27.5C5.00006 27.3681 4.94693 27.2394 4.85381 27.1462C4.76068 27.0531 4.63193 27 4.50006 27C4.36819 27 4.23944 27.0531 4.14631 27.1462C4.05319 27.2394 4.00006 27.3681 4.00006 27.5C4.00006 27.6319 4.05319 27.7606 4.14631 27.8537C4.23944 27.9469 4.36875 28 4.50006 28Z" fill="white"/>
<path d="M14.5 20.5H10.5C9.94867 20.5 9.50005 20.9486 9.50005 21.5V28.5C9.50005 29.0514 9.94867 29.5 10.5 29.5H14.5C15.0514 29.5 15.5 29.0514 15.5 28.5V21.5C15.5 20.9486 15.0514 20.5 14.5 20.5ZM14.5 28.5H10.5V21.5L14.5 21.4999V28.5Z" fill="white"/>
<path d="M11.5 25C11.5 25.5514 11.9487 26 12.5 26C13.0514 26 13.5 25.5514 13.5 25C13.5 24.4486 13.0514 24 12.5 24C11.9487 24 11.5 24.4486 11.5 25Z" fill="white"/>
<path d="M11.5 23C11.6313 23 11.7607 22.9469 11.8538 22.8537C11.9469 22.7606 12 22.6319 12 22.5C12 22.3681 11.9469 22.2394 11.8538 22.1462C11.7607 22.0531 11.6313 22 11.5 22C11.3682 22 11.2394 22.0531 11.1463 22.1462C11.0532 22.2394 11 22.3681 11 22.5C11 22.6319 11.0532 22.7606 11.1463 22.8537C11.2394 22.9469 11.3682 23 11.5 23Z" fill="white"/>
<path d="M13.5 23C13.6319 23 13.7607 22.9469 13.8538 22.8537C13.9469 22.7606 14 22.6319 14 22.5C14 22.3681 13.9469 22.2394 13.8538 22.1462C13.7607 22.0531 13.6319 22 13.5 22C13.3682 22 13.2394 22.0531 13.1463 22.1462C13.0532 22.2394 13 22.3681 13 22.5C13 22.6319 13.0532 22.7606 13.1463 22.8537C13.2394 22.9469 13.3682 23 13.5 23Z" fill="white"/>
<path d="M13.5 27C13.3682 27 13.2394 27.0531 13.1463 27.1462C13.0532 27.2394 13 27.3681 13 27.5C13 27.6319 13.0532 27.7606 13.1463 27.8537C13.2394 27.9469 13.3682 28 13.5 28C13.6313 28 13.7607 27.9469 13.8538 27.8537C13.9469 27.7606 14 27.6312 14 27.5C14 27.3681 13.9469 27.2394 13.8538 27.1462C13.7607 27.0531 13.6318 27 13.5 27Z" fill="white"/>
<path d="M11.5 28C11.6319 28 11.7607 27.9469 11.8538 27.8537C11.9469 27.7606 12 27.6319 12 27.5C12 27.3681 11.9469 27.2394 11.8538 27.1462C11.7607 27.0531 11.6319 27 11.5 27C11.3682 27 11.2394 27.0531 11.1463 27.1462C11.0532 27.2394 11 27.3681 11 27.5C11 27.6319 11.0532 27.7606 11.1463 27.8537C11.2394 27.9469 11.3687 28 11.5 28Z" fill="white"/>
<path d="M21.5 20.5H17.5C16.9487 20.5 16.5 20.9486 16.5 21.5V28.5C16.5 29.0514 16.9487 29.5 17.5 29.5H21.5C22.0514 29.5 22.5 29.0514 22.5 28.5V21.5C22.5 20.9486 22.0514 20.5 21.5 20.5ZM21.5 28.5H17.5V21.5L21.5 21.4999V28.5Z" fill="white"/>
<path d="M18.5 25C18.5 25.5514 18.9487 26 19.5 26C20.0514 26 20.5 25.5514 20.5 25C20.5 24.4486 20.0514 24 19.5 24C18.9487 24 18.5 24.4486 18.5 25Z" fill="white"/>
<path d="M18.5 23C18.6319 23 18.7607 22.9469 18.8538 22.8537C18.9469 22.7606 19 22.6312 19 22.5C19 22.3681 18.9469 22.2394 18.8538 22.1462C18.7607 22.0531 18.6319 22 18.5 22C18.3682 22 18.2394 22.0531 18.1463 22.1462C18.0532 22.2394 18 22.3681 18 22.5C18 22.6319 18.0532 22.7606 18.1463 22.8537C18.2394 22.9469 18.3682 23 18.5 23Z" fill="white"/>
<path d="M20.5 23C20.6319 23 20.7607 22.9469 20.8538 22.8537C20.9469 22.7606 21 22.6319 21 22.5C21 22.3681 20.9469 22.2394 20.8538 22.1462C20.7607 22.0531 20.6319 22 20.5 22C20.3682 22 20.2394 22.0531 20.1463 22.1462C20.0532 22.2394 20 22.3681 20 22.5C20 22.6319 20.0532 22.7606 20.1463 22.8537C20.2394 22.9469 20.3682 23 20.5 23Z" fill="white"/>
<path d="M20.5 27C20.3682 27 20.2394 27.0531 20.1463 27.1462C20.0532 27.2394 20 27.3681 20 27.5C20 27.6319 20.0532 27.7606 20.1463 27.8537C20.2394 27.9469 20.3682 28 20.5 28C20.6313 28 20.7607 27.9469 20.8538 27.8537C20.9469 27.7606 21 27.6319 21 27.5C21 27.3681 20.9469 27.2394 20.8538 27.1462C20.7607 27.0531 20.6313 27 20.5 27Z" fill="white"/>
<path d="M18.5 28C18.6313 28 18.7607 27.9469 18.8538 27.8537C18.9469 27.7606 19 27.6319 19 27.5C19 27.3681 18.9469 27.2394 18.8538 27.1462C18.7607 27.0531 18.6319 27 18.5 27C18.3682 27 18.2394 27.0531 18.1463 27.1462C18.0532 27.2394 18 27.3681 18 27.5C18 27.6312 18.0532 27.7606 18.1463 27.8537C18.2394 27.9469 18.3682 28 18.5 28Z" fill="white"/>
<path d="M28.5 20.5H24.5C23.9486 20.5 23.5 20.9486 23.5 21.5V28.5C23.5 29.0514 23.9486 29.5 24.5 29.5H28.5C29.0514 29.5 29.5 29.0514 29.5 28.5V21.5C29.5 20.9486 29.0514 20.5 28.5 20.5ZM28.5 28.5H24.5V21.5L28.5 21.4999V28.5Z" fill="white"/>
<path d="M25.5 25C25.5 25.5514 25.9486 26 26.5 26C27.0514 26 27.5 25.5514 27.5 25C27.5 24.4486 27.0514 24 26.5 24C25.9486 24 25.5 24.4486 25.5 25Z" fill="white"/>
<path d="M25.5 23C25.6313 23 25.7606 22.9469 25.8538 22.8537C25.9469 22.7606 26 22.6319 26 22.5C26 22.3681 25.9469 22.2394 25.8538 22.1462C25.7606 22.0531 25.6319 22 25.5 22C25.3681 22 25.2394 22.0531 25.1463 22.1462C25.0531 22.2394 25 22.3681 25 22.5C25 22.6319 25.0531 22.7606 25.1463 22.8537C25.2394 22.9469 25.3681 23 25.5 23Z" fill="white"/>
<path d="M27.5 23C27.6313 23 27.7606 22.9469 27.8538 22.8537C27.9469 22.7606 28 22.6312 28 22.5C28 22.3687 27.9469 22.2394 27.8538 22.1462C27.7606 22.0531 27.6313 22 27.5 22C27.3681 22 27.2394 22.0531 27.1463 22.1462C27.0531 22.2394 27 22.3681 27 22.5C27 22.6319 27.0531 22.7606 27.1463 22.8537C27.2394 22.9469 27.3687 23 27.5 23Z" fill="white"/>
<path d="M27.5 27C27.3681 27 27.2394 27.0531 27.1463 27.1462C27.0531 27.2394 27 27.3681 27 27.5C27 27.6319 27.0531 27.7606 27.1463 27.8537C27.2394 27.9469 27.3688 28 27.5 28C27.6313 28 27.7606 27.9469 27.8538 27.8537C27.9469 27.7606 28 27.6312 28 27.5C28 27.3687 27.9469 27.2394 27.8538 27.1462C27.7606 27.0531 27.6313 27 27.5 27Z" fill="white"/>
<path d="M25.5 28C25.6313 28 25.7606 27.9469 25.8538 27.8537C25.9469 27.7606 26 27.6319 26 27.5C26 27.3681 25.9469 27.2394 25.8538 27.1462C25.7606 27.0531 25.6319 27 25.5 27C25.3681 27 25.2394 27.0531 25.1463 27.1462C25.0531 27.2394 25 27.3681 25 27.5C25 27.6319 25.0531 27.7606 25.1463 27.8537C25.2394 27.9469 25.3681 28 25.5 28Z" fill="white"/>
<path d="M21.0001 12.5C20.724 12.5 20.5 12.7239 20.5 13C20.5 13.2761 20.7238 13.5 21 13.5C21.2757 13.5 21.5 13.7243 21.5 14V17.5C21.5 17.7757 21.2757 18 21 18H11C10.7244 18 10.5 17.7757 10.5 17.5V14C10.5 13.7243 10.7244 13.5 11 13.5H19.0001C19.2762 13.5 19.5001 13.2761 19.5001 13C19.5001 12.7239 19.2762 12.5 19.0001 12.5H11C10.173 12.5 9.50005 13.1729 9.50005 14V17.5C9.50005 18.3271 10.173 19 11 19H21C21.8271 19 22.5 18.3271 22.5 17.5V14C22.5 13.1729 21.8271 12.5 21.0001 12.5Z" fill="white"/>
<path d="M24.5 15.5C24.5 16.8785 25.6215 18 27 18C28.3785 18 29.5 16.8785 29.5 15.5C29.5 15.2884 29.4734 15.078 29.421 14.8746C29.3521 14.6072 29.0798 14.4463 28.8121 14.5152C28.5446 14.5841 28.3837 14.8567 28.4526 15.1241C28.4841 15.2461 28.5 15.3726 28.5 15.5C28.5 16.3271 27.8271 17 27 17C26.1729 17 25.5 16.3271 25.5 15.5C25.5 14.6729 26.1729 14 27 14C27.1274 14 27.2539 14.0159 27.3758 14.0474C27.6433 14.1162 27.9159 13.9554 27.9848 13.688C28.0538 13.4206 27.8928 13.1479 27.6254 13.079C27.4221 13.0266 27.2116 13 27.0001 13C25.6215 13 24.5 14.1215 24.5 15.5Z" fill="white"/>
<path d="M5.00005 18C6.37855 18 7.50005 16.8785 7.50005 15.5C7.50005 15.2884 7.47349 15.078 7.42105 14.8746C7.35211 14.6072 7.0798 14.4463 6.81211 14.5152C6.54468 14.5841 6.38374 14.8567 6.45268 15.1241C6.48411 15.2461 6.50005 15.3726 6.50005 15.5C6.50005 16.3271 5.82712 17 5.00005 17C4.17299 17 3.50006 16.3271 3.50006 15.5C3.50006 14.6729 4.17299 14 5.00005 14C5.12749 14 5.25393 14.0159 5.37587 14.0474C5.6433 14.1162 5.91593 13.9554 5.98487 13.688C6.0538 13.4206 5.89287 13.1479 5.62549 13.079C5.42212 13.0266 5.21168 13 5.00012 13C3.62162 13 2.50012 14.1215 2.50012 15.5C2.50012 16.8785 3.6215 18 5.00005 18Z" fill="white"/>
<path d="M11 8C11 7.78843 10.9735 7.578 10.921 7.37462C10.8521 7.10725 10.5797 6.94625 10.3121 7.01518C10.0447 7.08412 9.88372 7.35675 9.95266 7.62412C9.9841 7.74606 10 7.87256 10 8C10 8.82706 9.3271 9.49999 8.50004 9.49999C7.67298 9.49999 7.00004 8.82706 7.00004 8C7.00004 7.17293 7.67298 6.5 8.50004 6.5C8.62748 6.5 8.75391 6.51594 8.87585 6.54737C9.14329 6.61619 9.41591 6.45537 9.48485 6.188C9.55379 5.92062 9.39285 5.64794 9.12548 5.579C8.9221 5.52662 8.71166 5.5 8.5001 5.5C7.1216 5.5 6.00011 6.6215 6.00011 8C6.00011 9.37849 7.1216 10.5 8.5001 10.5C9.8786 10.5 11 9.37849 11 8Z" fill="white"/>
<path d="M23.5 10.5C24.8785 10.5 26 9.37849 26 8C26 7.78843 25.9735 7.578 25.921 7.37462C25.8521 7.10725 25.5797 6.94625 25.3121 7.01518C25.0446 7.08412 24.8837 7.35675 24.9526 7.62412C24.9841 7.74606 25 7.87256 25 8C25 8.82706 24.3271 9.49999 23.5 9.49999C22.673 9.49999 22 8.82706 22 8C22 7.17293 22.673 6.5 23.5 6.5C23.6275 6.5 23.7539 6.51594 23.8758 6.54737C24.1432 6.61619 24.4159 6.45537 24.4848 6.188C24.5538 5.92062 24.3928 5.64794 24.1255 5.579C23.9221 5.52662 23.7116 5.5 23.5001 5.5C22.1216 5.5 21.0001 6.6215 21.0001 8C21.0001 9.37849 22.1215 10.5 23.5 10.5Z" fill="white"/>
<path d="M16 7.49999C17.3785 7.49999 18.5 6.37849 18.5 5C18.5 4.78843 18.4735 4.578 18.421 4.37462C18.3521 4.10725 18.0797 3.94625 17.8121 4.01518C17.5446 4.08412 17.3837 4.35675 17.4526 4.62412C17.4841 4.74606 17.5 4.87256 17.5 5C17.5 5.82706 16.8271 6.49999 16 6.49999C15.173 6.49999 14.5 5.82706 14.5 5C14.5 4.17293 15.173 3.5 16 3.5C16.1275 3.5 16.2539 3.51594 16.3758 3.54737C16.6433 3.61619 16.9159 3.45537 16.9848 3.188C17.0538 2.92062 16.8928 2.64794 16.6255 2.579C16.4221 2.52662 16.2116 2.5 16.0001 2.5C14.6216 2.5 13.5001 3.6215 13.5001 5C13.5001 6.37849 14.6215 7.49999 16 7.49999Z" fill="white"/>
</g>
<defs>
<clipPath id="clip0_17_3116">
<rect width="32" height="32" fill="white"/>
</clipPath>
</defs>
</svg>
